<mxfile host="app.diagrams.net" agent="Mozilla/5.0 (Windows NT 10.0; Win64; x64) AppleWebKit/537.36 (KHTML, like Gecko) Chrome/130.0.0.0 Safari/537.36" version="24.8.3">
  <diagram name="Page-1" id="5d7acffa-a066-3a61-03fe-96351882024d">
    <mxGraphModel dx="1221" dy="638" grid="1" gridSize="10" guides="1" tooltips="1" connect="1" arrows="1" fold="1" page="1" pageScale="1" pageWidth="1100" pageHeight="850" background="#ffffff" math="0" shadow="0">
      <root>
        <mxCell id="0" />
        <mxCell id="1" parent="0" />
        <mxCell id="mxsOaCfrh2Cv23pvlEyB-28" style="edgeStyle=orthogonalEdgeStyle;rounded=0;orthogonalLoop=1;jettySize=auto;html=1;entryX=1;entryY=0.5;entryDx=0;entryDy=0;curved=1;" parent="1" source="mxsOaCfrh2Cv23pvlEyB-1" target="mxsOaCfrh2Cv23pvlEyB-2" edge="1">
          <mxGeometry relative="1" as="geometry">
            <Array as="points">
              <mxPoint x="650" y="350" />
              <mxPoint x="650" y="58" />
              <mxPoint x="470" y="58" />
              <mxPoint x="470" y="45" />
            </Array>
          </mxGeometry>
        </mxCell>
        <mxCell id="mxsOaCfrh2Cv23pvlEyB-34" style="edgeStyle=orthogonalEdgeStyle;rounded=0;orthogonalLoop=1;jettySize=auto;html=1;entryX=1;entryY=0;entryDx=0;entryDy=0;curved=1;" parent="1" source="mxsOaCfrh2Cv23pvlEyB-1" target="mxsOaCfrh2Cv23pvlEyB-2" edge="1">
          <mxGeometry relative="1" as="geometry">
            <Array as="points">
              <mxPoint x="760" y="380" />
              <mxPoint x="760" y="20" />
            </Array>
          </mxGeometry>
        </mxCell>
        <mxCell id="QPhrQzIs5VZEey3i6omj-5" style="edgeStyle=orthogonalEdgeStyle;rounded=0;orthogonalLoop=1;jettySize=auto;html=1;entryX=1;entryY=0.25;entryDx=0;entryDy=0;curved=1;exitX=1.008;exitY=0.568;exitDx=0;exitDy=0;exitPerimeter=0;" edge="1" parent="1" source="mxsOaCfrh2Cv23pvlEyB-1" target="mxsOaCfrh2Cv23pvlEyB-2">
          <mxGeometry relative="1" as="geometry">
            <Array as="points">
              <mxPoint x="700" y="365" />
              <mxPoint x="700" y="45" />
              <mxPoint x="480" y="45" />
              <mxPoint x="480" y="33" />
            </Array>
          </mxGeometry>
        </mxCell>
        <mxCell id="mxsOaCfrh2Cv23pvlEyB-1" value="&lt;font style=&quot;font-size: 20px;&quot;&gt;Health Risk prediction System&lt;/font&gt;" style="ellipse;whiteSpace=wrap;html=1;aspect=fixed;" parent="1" vertex="1">
          <mxGeometry x="380" y="240" width="220" height="220" as="geometry" />
        </mxCell>
        <mxCell id="mxsOaCfrh2Cv23pvlEyB-6" style="edgeStyle=orthogonalEdgeStyle;rounded=0;orthogonalLoop=1;jettySize=auto;html=1;entryX=0;entryY=0.5;entryDx=0;entryDy=0;curved=1;exitX=0;exitY=0.75;exitDx=0;exitDy=0;" parent="1" source="mxsOaCfrh2Cv23pvlEyB-2" target="mxsOaCfrh2Cv23pvlEyB-1" edge="1">
          <mxGeometry relative="1" as="geometry">
            <Array as="points">
              <mxPoint x="340" y="80" />
              <mxPoint x="300" y="80" />
              <mxPoint x="300" y="200" />
              <mxPoint x="290" y="200" />
              <mxPoint x="290" y="350" />
            </Array>
          </mxGeometry>
        </mxCell>
        <mxCell id="E8s_koDvf87j7rHEZqhv-1" style="edgeStyle=orthogonalEdgeStyle;rounded=0;orthogonalLoop=1;jettySize=auto;html=1;curved=1;exitX=0;exitY=0.25;exitDx=0;exitDy=0;" parent="1" source="mxsOaCfrh2Cv23pvlEyB-2" target="mxsOaCfrh2Cv23pvlEyB-1" edge="1">
          <mxGeometry relative="1" as="geometry">
            <mxPoint x="150" y="350" as="targetPoint" />
            <Array as="points">
              <mxPoint x="151" y="33" />
              <mxPoint x="151" y="400" />
            </Array>
          </mxGeometry>
        </mxCell>
        <mxCell id="mxsOaCfrh2Cv23pvlEyB-2" value="&lt;font style=&quot;font-size: 16px;&quot;&gt;User&lt;/font&gt;" style="rounded=0;whiteSpace=wrap;html=1;" parent="1" vertex="1">
          <mxGeometry x="340" y="20" width="110" height="50" as="geometry" />
        </mxCell>
        <mxCell id="mxsOaCfrh2Cv23pvlEyB-36" style="edgeStyle=orthogonalEdgeStyle;rounded=0;orthogonalLoop=1;jettySize=auto;html=1;entryX=1;entryY=1;entryDx=0;entryDy=0;curved=1;" parent="1" source="mxsOaCfrh2Cv23pvlEyB-3" target="mxsOaCfrh2Cv23pvlEyB-1" edge="1">
          <mxGeometry relative="1" as="geometry">
            <Array as="points">
              <mxPoint x="720" y="475" />
              <mxPoint x="720" y="410" />
              <mxPoint x="600" y="410" />
              <mxPoint x="600" y="428" />
            </Array>
          </mxGeometry>
        </mxCell>
        <mxCell id="mxsOaCfrh2Cv23pvlEyB-37" style="edgeStyle=orthogonalEdgeStyle;rounded=0;orthogonalLoop=1;jettySize=auto;html=1;curved=1;exitX=0;exitY=1;exitDx=0;exitDy=0;" parent="1" source="mxsOaCfrh2Cv23pvlEyB-3" target="mxsOaCfrh2Cv23pvlEyB-1" edge="1">
          <mxGeometry relative="1" as="geometry">
            <Array as="points">
              <mxPoint x="760" y="510" />
              <mxPoint x="540" y="510" />
            </Array>
          </mxGeometry>
        </mxCell>
        <mxCell id="QPhrQzIs5VZEey3i6omj-8" style="edgeStyle=orthogonalEdgeStyle;rounded=0;orthogonalLoop=1;jettySize=auto;html=1;entryX=0.5;entryY=1;entryDx=0;entryDy=0;curved=1;exitX=0.364;exitY=1;exitDx=0;exitDy=0;exitPerimeter=0;" edge="1" parent="1" source="mxsOaCfrh2Cv23pvlEyB-3" target="mxsOaCfrh2Cv23pvlEyB-1">
          <mxGeometry relative="1" as="geometry">
            <Array as="points">
              <mxPoint x="800" y="570" />
              <mxPoint x="490" y="570" />
            </Array>
          </mxGeometry>
        </mxCell>
        <mxCell id="mxsOaCfrh2Cv23pvlEyB-3" value="&lt;font style=&quot;font-size: 16px;&quot;&gt;Admin&lt;/font&gt;" style="rounded=0;whiteSpace=wrap;html=1;" parent="1" vertex="1">
          <mxGeometry x="760" y="450" width="110" height="50" as="geometry" />
        </mxCell>
        <mxCell id="mxsOaCfrh2Cv23pvlEyB-7" style="edgeStyle=orthogonalEdgeStyle;rounded=0;orthogonalLoop=1;jettySize=auto;html=1;curved=1;exitX=0;exitY=0.5;exitDx=0;exitDy=0;entryX=0;entryY=0.591;entryDx=0;entryDy=0;entryPerimeter=0;" parent="1" edge="1">
          <mxGeometry relative="1" as="geometry">
            <mxPoint x="340" y="49.980000000000004" as="sourcePoint" />
            <mxPoint x="380" y="375" as="targetPoint" />
            <Array as="points">
              <mxPoint x="280" y="50" />
              <mxPoint x="280" y="115" />
              <mxPoint x="240" y="115" />
              <mxPoint x="240" y="375" />
            </Array>
          </mxGeometry>
        </mxCell>
        <mxCell id="mxsOaCfrh2Cv23pvlEyB-8" style="edgeStyle=orthogonalEdgeStyle;rounded=0;orthogonalLoop=1;jettySize=auto;html=1;entryX=0.013;entryY=0.379;entryDx=0;entryDy=0;curved=1;exitX=0.193;exitY=0.98;exitDx=0;exitDy=0;exitPerimeter=0;entryPerimeter=0;" parent="1" target="mxsOaCfrh2Cv23pvlEyB-1" edge="1">
          <mxGeometry relative="1" as="geometry">
            <mxPoint x="361.23" y="70" as="sourcePoint" />
            <mxPoint x="423.55999999999995" y="263.65999999999997" as="targetPoint" />
            <Array as="points">
              <mxPoint x="350" y="70" />
              <mxPoint x="350" y="110" />
              <mxPoint x="330" y="110" />
              <mxPoint x="330" y="264" />
              <mxPoint x="383" y="264" />
            </Array>
          </mxGeometry>
        </mxCell>
        <mxCell id="mxsOaCfrh2Cv23pvlEyB-9" style="edgeStyle=orthogonalEdgeStyle;rounded=0;orthogonalLoop=1;jettySize=auto;html=1;entryX=0;entryY=0;entryDx=0;entryDy=0;curved=1;" parent="1" target="mxsOaCfrh2Cv23pvlEyB-1" edge="1">
          <mxGeometry relative="1" as="geometry">
            <mxPoint x="370" y="70" as="sourcePoint" />
            <mxPoint x="442" y="302" as="targetPoint" />
            <Array as="points">
              <mxPoint x="370" y="73" />
              <mxPoint x="370" y="150" />
              <mxPoint x="360" y="150" />
              <mxPoint x="360" y="259" />
              <mxPoint x="412" y="259" />
            </Array>
          </mxGeometry>
        </mxCell>
        <mxCell id="mxsOaCfrh2Cv23pvlEyB-10" style="edgeStyle=orthogonalEdgeStyle;rounded=0;orthogonalLoop=1;jettySize=auto;html=1;entryX=0.242;entryY=0.074;entryDx=0;entryDy=0;curved=1;entryPerimeter=0;exitX=0.407;exitY=0.98;exitDx=0;exitDy=0;exitPerimeter=0;" parent="1" target="mxsOaCfrh2Cv23pvlEyB-1" edge="1" source="mxsOaCfrh2Cv23pvlEyB-2">
          <mxGeometry relative="1" as="geometry">
            <mxPoint x="400" y="70" as="sourcePoint" />
            <mxPoint x="419.75" y="250.78000000000003" as="targetPoint" />
            <Array as="points">
              <mxPoint x="385" y="70" />
              <mxPoint x="390" y="70" />
              <mxPoint x="390" y="256" />
            </Array>
          </mxGeometry>
        </mxCell>
        <mxCell id="mxsOaCfrh2Cv23pvlEyB-11" style="edgeStyle=orthogonalEdgeStyle;rounded=0;orthogonalLoop=1;jettySize=auto;html=1;entryX=0.5;entryY=0;entryDx=0;entryDy=0;curved=1;exitX=0.633;exitY=0.944;exitDx=0;exitDy=0;exitPerimeter=0;" parent="1" source="mxsOaCfrh2Cv23pvlEyB-2" target="mxsOaCfrh2Cv23pvlEyB-1" edge="1">
          <mxGeometry relative="1" as="geometry">
            <mxPoint x="445" y="120" as="sourcePoint" />
            <mxPoint x="462" y="322" as="targetPoint" />
            <Array as="points">
              <mxPoint x="410" y="80" />
              <mxPoint x="423" y="80" />
              <mxPoint x="423" y="155" />
              <mxPoint x="450" y="155" />
              <mxPoint x="450" y="240" />
            </Array>
          </mxGeometry>
        </mxCell>
        <mxCell id="mxsOaCfrh2Cv23pvlEyB-12" style="edgeStyle=orthogonalEdgeStyle;rounded=0;orthogonalLoop=1;jettySize=auto;html=1;entryX=0.38;entryY=0.015;entryDx=0;entryDy=0;curved=1;entryPerimeter=0;exitX=0.5;exitY=1;exitDx=0;exitDy=0;" parent="1" source="mxsOaCfrh2Cv23pvlEyB-2" target="mxsOaCfrh2Cv23pvlEyB-1" edge="1">
          <mxGeometry relative="1" as="geometry">
            <mxPoint x="455" y="130" as="sourcePoint" />
            <mxPoint x="472" y="332" as="targetPoint" />
            <Array as="points">
              <mxPoint x="406" y="70" />
              <mxPoint x="406" y="155" />
              <mxPoint x="420" y="155" />
              <mxPoint x="420" y="243" />
            </Array>
          </mxGeometry>
        </mxCell>
        <mxCell id="mxsOaCfrh2Cv23pvlEyB-13" style="edgeStyle=orthogonalEdgeStyle;rounded=0;orthogonalLoop=1;jettySize=auto;html=1;curved=1;exitX=0.75;exitY=1;exitDx=0;exitDy=0;" parent="1" source="mxsOaCfrh2Cv23pvlEyB-2" target="mxsOaCfrh2Cv23pvlEyB-1" edge="1">
          <mxGeometry relative="1" as="geometry">
            <mxPoint x="465" y="140" as="sourcePoint" />
            <mxPoint x="530" y="220" as="targetPoint" />
            <Array as="points">
              <mxPoint x="438" y="70" />
              <mxPoint x="438" y="155" />
              <mxPoint x="480" y="155" />
              <mxPoint x="480" y="180" />
              <mxPoint x="530" y="180" />
            </Array>
          </mxGeometry>
        </mxCell>
        <mxCell id="mxsOaCfrh2Cv23pvlEyB-14" style="edgeStyle=orthogonalEdgeStyle;rounded=0;orthogonalLoop=1;jettySize=auto;html=1;entryX=0.761;entryY=0.075;entryDx=0;entryDy=0;curved=1;entryPerimeter=0;exitX=0.908;exitY=0.98;exitDx=0;exitDy=0;exitPerimeter=0;" parent="1" source="mxsOaCfrh2Cv23pvlEyB-2" target="mxsOaCfrh2Cv23pvlEyB-1" edge="1">
          <mxGeometry relative="1" as="geometry">
            <mxPoint x="490" y="90" as="sourcePoint" />
            <mxPoint x="492" y="352" as="targetPoint" />
          </mxGeometry>
        </mxCell>
        <mxCell id="mxsOaCfrh2Cv23pvlEyB-15" value="bp" style="text;html=1;align=center;verticalAlign=middle;resizable=0;points=[];autosize=1;strokeColor=none;fillColor=none;" parent="1" vertex="1">
          <mxGeometry x="310" y="138" width="40" height="30" as="geometry" />
        </mxCell>
        <mxCell id="mxsOaCfrh2Cv23pvlEyB-16" value="heartRate" style="text;html=1;align=center;verticalAlign=middle;resizable=0;points=[];autosize=1;strokeColor=none;fillColor=none;" parent="1" vertex="1">
          <mxGeometry x="245" y="180" width="80" height="30" as="geometry" />
        </mxCell>
        <mxCell id="mxsOaCfrh2Cv23pvlEyB-17" value="glucoseLevel" style="text;html=1;align=center;verticalAlign=middle;resizable=0;points=[];autosize=1;strokeColor=none;fillColor=none;" parent="1" vertex="1">
          <mxGeometry x="360" y="170" width="90" height="30" as="geometry" />
        </mxCell>
        <mxCell id="mxsOaCfrh2Cv23pvlEyB-18" value="respiratoryRate" style="text;html=1;align=center;verticalAlign=middle;resizable=0;points=[];autosize=1;strokeColor=none;fillColor=none;" parent="1" vertex="1">
          <mxGeometry x="320" y="200" width="110" height="30" as="geometry" />
        </mxCell>
        <mxCell id="mxsOaCfrh2Cv23pvlEyB-19" value="height" style="text;html=1;align=center;verticalAlign=middle;resizable=0;points=[];autosize=1;strokeColor=none;fillColor=none;" parent="1" vertex="1">
          <mxGeometry x="470" y="170" width="60" height="30" as="geometry" />
        </mxCell>
        <mxCell id="mxsOaCfrh2Cv23pvlEyB-20" value="spo2" style="text;html=1;align=center;verticalAlign=middle;resizable=0;points=[];autosize=1;strokeColor=none;fillColor=none;" parent="1" vertex="1">
          <mxGeometry x="380" y="130" width="50" height="30" as="geometry" />
        </mxCell>
        <mxCell id="mxsOaCfrh2Cv23pvlEyB-21" value="bodyTemp" style="text;html=1;align=center;verticalAlign=middle;resizable=0;points=[];autosize=1;strokeColor=none;fillColor=none;" parent="1" vertex="1">
          <mxGeometry x="400" y="150" width="80" height="30" as="geometry" />
        </mxCell>
        <mxCell id="mxsOaCfrh2Cv23pvlEyB-22" value="avgSleep" style="text;html=1;align=center;verticalAlign=middle;resizable=0;points=[];autosize=1;strokeColor=none;fillColor=none;" parent="1" vertex="1">
          <mxGeometry x="530" y="140" width="70" height="30" as="geometry" />
        </mxCell>
        <mxCell id="mxsOaCfrh2Cv23pvlEyB-23" value="weight" style="text;html=1;align=center;verticalAlign=middle;resizable=0;points=[];autosize=1;strokeColor=none;fillColor=none;" parent="1" vertex="1">
          <mxGeometry x="450" y="108" width="60" height="30" as="geometry" />
        </mxCell>
        <mxCell id="mxsOaCfrh2Cv23pvlEyB-24" value="login" style="text;html=1;align=center;verticalAlign=middle;resizable=0;points=[];autosize=1;strokeColor=none;fillColor=none;" parent="1" vertex="1">
          <mxGeometry x="195" y="230" width="50" height="30" as="geometry" />
        </mxCell>
        <mxCell id="mxsOaCfrh2Cv23pvlEyB-31" value="prediction" style="text;html=1;align=center;verticalAlign=middle;resizable=0;points=[];autosize=1;strokeColor=none;fillColor=none;" parent="1" vertex="1">
          <mxGeometry x="620" y="130" width="80" height="30" as="geometry" />
        </mxCell>
        <mxCell id="mxsOaCfrh2Cv23pvlEyB-32" style="edgeStyle=orthogonalEdgeStyle;rounded=0;orthogonalLoop=1;jettySize=auto;html=1;entryX=1;entryY=0;entryDx=0;entryDy=0;curved=1;exitX=1;exitY=1;exitDx=0;exitDy=0;" parent="1" source="mxsOaCfrh2Cv23pvlEyB-2" target="mxsOaCfrh2Cv23pvlEyB-1" edge="1">
          <mxGeometry relative="1" as="geometry">
            <Array as="points">
              <mxPoint x="450" y="110" />
              <mxPoint x="550" y="110" />
              <mxPoint x="550" y="220" />
              <mxPoint x="568" y="220" />
            </Array>
          </mxGeometry>
        </mxCell>
        <mxCell id="mxsOaCfrh2Cv23pvlEyB-35" value="pastRecord" style="text;html=1;align=center;verticalAlign=middle;resizable=0;points=[];autosize=1;strokeColor=none;fillColor=none;" parent="1" vertex="1">
          <mxGeometry x="730" y="200" width="80" height="30" as="geometry" />
        </mxCell>
        <mxCell id="mxsOaCfrh2Cv23pvlEyB-38" value="login" style="text;html=1;align=center;verticalAlign=middle;resizable=0;points=[];autosize=1;strokeColor=none;fillColor=none;" parent="1" vertex="1">
          <mxGeometry x="710" y="410" width="50" height="30" as="geometry" />
        </mxCell>
        <mxCell id="mxsOaCfrh2Cv23pvlEyB-39" value="userMgmt" style="text;html=1;align=center;verticalAlign=middle;resizable=0;points=[];autosize=1;strokeColor=none;fillColor=none;" parent="1" vertex="1">
          <mxGeometry x="600" y="480" width="80" height="30" as="geometry" />
        </mxCell>
        <mxCell id="E8s_koDvf87j7rHEZqhv-2" value="signup" style="text;html=1;align=center;verticalAlign=middle;resizable=0;points=[];autosize=1;strokeColor=none;fillColor=none;" parent="1" vertex="1">
          <mxGeometry x="100" y="138" width="60" height="30" as="geometry" />
        </mxCell>
        <mxCell id="QPhrQzIs5VZEey3i6omj-7" value="tips" style="text;html=1;align=center;verticalAlign=middle;resizable=0;points=[];autosize=1;strokeColor=none;fillColor=none;" vertex="1" parent="1">
          <mxGeometry x="690" y="250" width="40" height="30" as="geometry" />
        </mxCell>
        <mxCell id="QPhrQzIs5VZEey3i6omj-9" value="contentMgmt" style="text;html=1;align=center;verticalAlign=middle;resizable=0;points=[];autosize=1;strokeColor=none;fillColor=none;" vertex="1" parent="1">
          <mxGeometry x="580" y="540" width="90" height="30" as="geometry" />
        </mxCell>
        <mxCell id="QPhrQzIs5VZEey3i6omj-10" style="edgeStyle=orthogonalEdgeStyle;rounded=0;orthogonalLoop=1;jettySize=auto;html=1;entryX=0.943;entryY=0.277;entryDx=0;entryDy=0;entryPerimeter=0;curved=1;exitX=1;exitY=0.75;exitDx=0;exitDy=0;" edge="1" parent="1" source="mxsOaCfrh2Cv23pvlEyB-2" target="mxsOaCfrh2Cv23pvlEyB-1">
          <mxGeometry relative="1" as="geometry">
            <Array as="points">
              <mxPoint x="450" y="80" />
              <mxPoint x="590" y="80" />
              <mxPoint x="590" y="200" />
              <mxPoint x="588" y="200" />
            </Array>
          </mxGeometry>
        </mxCell>
        <mxCell id="QPhrQzIs5VZEey3i6omj-11" value="age" style="text;html=1;align=center;verticalAlign=middle;resizable=0;points=[];autosize=1;strokeColor=none;fillColor=none;" vertex="1" parent="1">
          <mxGeometry x="580" y="190" width="40" height="30" as="geometry" />
        </mxCell>
      </root>
    </mxGraphModel>
  </diagram>
</mxfile>
